Coordinates
version=1
nRows=4
nColumns=63
inDegrees=yes

Units are S.I. units (second, meters, Newtons, ...)
If the header above contains a line with 'inDegrees', this indicates whether rotational values are in degrees (yes) or radians (no).

endheader
time	pelvis_tilt	pelvis_list	pelvis_rotation	pelvis_tx	pelvis_ty	pelvis_tz	hip_flexion_r	hip_adduction_r	hip_rotation_r	knee_angle_r	knee_angle_r_beta	ankle_angle_r	subtalar_angle_r	mtp_angle_r	hip_flexion_l	hip_adduction_l	hip_rotation_l	knee_angle_l	knee_angle_l_beta	ankle_angle_l	subtalar_angle_l	mtp_angle_l	L5_S1_Flex_Ext	L5_S1_Lat_Bending	L5_S1_axial_rotation	L4_L5_Flex_Ext	L4_L5_Lat_Bending	L4_L5_axial_rotation	L3_L4_Flex_Ext	L3_L4_Lat_Bending	L3_L4_axial_rotation	L2_L3_Flex_Ext	L2_L3_Lat_Bending	L2_L3_axial_rotation	L1_L2_Flex_Ext	L1_L2_Lat_Bending	L1_L2_axial_rotation	L1_T12_Flex_Ext	L1_T12_Lat_Bending	L1_T12_axial_rotation	Abs_r3	Abs_r2	Abs_r1	Abs_t1	Abs_t2	neck_flexion	neck_bending	neck_rotation	arm_flex_r	arm_add_r	arm_rot_r	elbow_flex_r	pro_sup_r	wrist_flex_r	wrist_dev_r	arm_flex_l	arm_add_l	arm_rot_l	elbow_flex_l	pro_sup_l	wrist_flex_l	wrist_dev_l
      1.45000000	     -8.60653052	    -18.59005332	     71.04789618	      0.21411008	      0.78050914	      0.70487348	     19.11197730	     -4.55939494	      1.01688905	      4.52035340	      0.07889505	     18.82793968	     16.71618934	      0.00000000	     18.19620315	      3.45674474	     -9.95740245	      8.43297221	      0.14718313	     10.70616061	     -9.22953979	      0.00000000	      0.07042799	     -0.09357138	     -0.34763698	      0.13079182	     -0.12444994	     -0.36936429	      0.11570615	     -0.22750947	     -0.36936429	      0.08049215	     -0.22750947	     -0.30418235	      0.06539943	     -0.19081077	     -0.28245504	      0.04024255	     -0.14494208	     -0.26072773	      0.50306010	     -1.05849822	     -1.93345257	      0.00000000	      0.00000000	     14.52825848	     -1.17317933	      6.46461495	     13.08624447	    -25.72124262	     36.86560384	     74.52182190	     88.54043998	    -17.83938700	     -1.73424064	    -13.75368986	    -25.89513459	     21.67432670	     99.90034773	     86.54532875	     -1.14944554	     25.01046156
      1.46666667	     -8.95625095	    -19.61067382	     71.11872239	      0.21080016	      0.77813962	      0.70859823	     20.37065159	     -4.72662234	      0.81813482	      4.40297876	      0.07684648	     18.74359774	     16.59631707	      0.00000000	     19.43612273	      3.65151193	     -9.96863175	      8.17829045	      0.14273810	     10.68135508	     -9.02253438	      0.00000000	      0.07269334	     -0.03456874	     -0.31457698	      0.13499879	     -0.04597642	     -0.33423804	      0.11942788	     -0.08405043	     -0.33423804	      0.08308121	     -0.08405043	     -0.27525486	      0.06750303	     -0.07049257	     -0.25559380	      0.04153697	     -0.05354698	     -0.23593274	      0.51924123	     -0.39104848	     -1.74958279	      0.00000000	      0.00000000	     14.91921716	     -2.07655226	      5.45104478	     16.48525211	    -26.55034700	     37.33282149	     73.60349337	     88.06156439	    -16.99360208	     -0.97349097	    -12.16201321	    -25.89527400	     24.18870815	    102.63743778	     86.55124652	     -0.29864271	     25.44928757
      1.48333333	     -9.13718205	    -20.72945961	     71.25550794	      0.20795588	      0.77595950	      0.71238316	     21.66125675	     -4.69039459	      0.55044166	      4.31747373	      0.07535413	     18.51570588	     16.47792693	      0.00000000	     20.63295208	      3.64862806	     -9.82691271	      7.78955187	      0.13595333	     10.67882579	     -8.69589383	      0.00000000	      0.06966917	      0.05067071	     -0.29932236	      0.12938261	      0.06739204	     -0.31803001	      0.11445948	      0.12320076	     -0.31803001	      0.07962489	      0.12320076	     -0.26190706	      0.06469479	      0.10332771	     -0.24319942	      0.03980896	      0.07848893	     -0.22449177	      0.49763990	      0.57319720	     -1.66474116	      0.00000000	      0.00000000	     15.69512714	     -2.78883167	      4.55273675	     19.74589131	    -26.60531944	     37.02983477	     71.98507438	     87.17959028	    -16.66809916	      0.15966536	    -10.38825848	    -25.83048765	     26.81988806	    104.91954213	     87.48683352	      0.66465941	     25.52383729
      1.50000000	     -8.89849872	    -21.76318346	     72.13258166	      0.20302147	      0.77428742	      0.71606863	     22.83508349	     -4.64531485	     -0.55505288	      4.61144563	      0.08048491	     18.50861727	     16.35034576	      0.00000000	     21.90314188	      3.52873219	     -9.65039752	      7.90931943	      0.13804367	     10.96271004	     -7.69856030	      0.00000000	      0.01912637	      0.19780482	     -0.22633178	      0.03551958	      0.26308041	     -0.24047752	      0.03142271	      0.48094264	     -0.24047752	      0.02185953	      0.48094264	     -0.19804031	      0.01776075	      0.40336359	     -0.18389457	      0.01092881	      0.30639967	     -0.16974884	      0.13661774	      2.23760770	     -1.25878948	      0.00000000	      0.00000000	     16.35595199	     -4.48483609	      2.17719573	     22.93766406	    -27.87966353	     36.78328820	     70.97893978	     84.35875526	    -16.84740154	      2.69800761	     -6.88546579	    -25.60616670	     30.92037987	    106.22733427	     88.94167764	      2.75443719	     25.51998101
